<?xml version="1.0" encoding="UTF-8"?>
<svg version="1.1" xmlns="http://www.w3.org/2000/svg" width="365" height="365">
<path d="M0 0 C1.18722656 0.23847656 2.37445313 0.47695313 3.59765625 0.72265625 C7.64539447 2.19499144 9.45385496 3.40217918 11.9375 6.9375 C13.32893786 13.74508161 11.05131062 20.90954636 9.4375 27.5 C9.19902344 28.50869141 8.96054688 29.51738281 8.71484375 30.55664062 C8.13129784 33.01920438 7.53872249 35.47920359 6.9375 37.9375 C7.62972656 37.62296875 8.32195312 37.3084375 9.03515625 36.984375 C23.81464148 30.51956723 46.57601069 22.40943973 62.75 27.890625 C64.9375 28.9375 64.9375 28.9375 65.9375 29.9375 C66.83193846 35.77690535 66.01375776 40.16408565 62.6484375 45.0078125 C59.52124822 48.53482506 55.79024866 51.25148786 51.9375 53.9375 C52.85789063 54.35 53.77828125 54.7625 54.7265625 55.1875 C68.99277637 61.65900747 81.79181738 69.26128934 94.27416992 78.71875 C95.86721051 79.8859977 97.52098538 80.96896213 99.17578125 82.046875 C101.62529892 83.72377253 103.26516545 85.16381487 105.125 87.4375 C107.63656226 90.43141528 110.21688207 93.32644659 112.89453125 96.17333984 C144.28724452 129.69565522 155.21627785 171.99759265 153.9375 216.9375 C153.68013039 222.02211919 152.9440845 226.94651851 151.9375 231.9375 C151.78152344 232.72253906 151.62554687 233.50757813 151.46484375 234.31640625 C143.88580116 271.53792651 123.75344429 304.15624825 94.80859375 328.74609375 C92.9375 329.9375 92.9375 329.9375 89.9375 329.9375 C89.6075 330.9275 89.2775 331.9175 88.9375 332.9375 C86.80235589 334.62582322 84.70699063 336.13755202 82.4375 337.625 C81.76605957 338.06561768 81.09461914 338.50623535 80.40283203 338.96020508 C59.46994652 352.35212617 35.37548141 359.50965765 10.8125 362.125 C10.02544678 362.20919189 9.23839355 362.29338379 8.42749023 362.38012695 C-2.75119085 363.44175085 -13.74063984 363.01979507 -24.875 361.6875 C-26.0086499 361.55255127 -27.1422998 361.41760254 -28.31030273 361.27856445 C-37.15801586 360.16510893 -45.53984981 358.5812243 -54.0625 355.9375 C-54.74038574 355.72754395 -55.41827148 355.51758789 -56.11669922 355.30126953 C-85.74504807 345.94602157 -119.55397105 326.31608147 -136.0625 298.9375 C-136.0625 297.9475 -136.0625 296.9575 -136.0625 295.9375 C-136.7225 295.9375 -137.3825 295.9375 -138.0625 295.9375 C-140.64368424 292.43826569 -142.79755464 288.64724208 -145.0625 284.9375 C-145.56136719 284.18210937 -146.06023437 283.42671875 -146.57421875 282.6484375 C-168.17091279 249.15876949 -170.8143009 205.1781478 -162.8125 167.125 C-153.3962929 125.05451958 -126.40253221 90.17190049 -90.37890625 67.13330078 C-82.00952214 61.93039579 -73.13164815 57.76695067 -64.0625 53.9375 C-64.8875 53.31875 -65.7125 52.7 -66.5625 52.0625 C-67.3875 51.36125 -68.2125 50.66 -69.0625 49.9375 C-69.0625 49.2775 -69.0625 48.6175 -69.0625 47.9375 C-70.0525 47.9375 -71.0425 47.9375 -72.0625 47.9375 C-75.53337416 43.81636475 -78.4246225 38.96024121 -78.75 33.5 C-78.0625 29.9375 -78.0625 29.9375 -75.8828125 28.234375 C-62.98252881 22.3023886 -43.43273624 28.78161541 -30.80053711 33.37329102 C-26.86562375 34.8391773 -22.9514994 36.35338619 -19.0625 37.9375 C-19.07297363 37.32865967 -19.08344727 36.71981934 -19.09423828 36.0925293 C-19.50641105 8.51608404 -19.50641105 8.51608404 -15.3125 2.375 C-10.0502979 -0.98696245 -6.04589271 -1.3091759 0 0 Z " fill="#FEFEFE" transform="translate(169.0625,2.0625)"/>
<path d="M0 0 C1.18722656 0.23847656 2.37445313 0.47695313 3.59765625 0.72265625 C7.64539447 2.19499144 9.45385496 3.40217918 11.9375 6.9375 C13.32893786 13.74508161 11.05131062 20.90954636 9.4375 27.5 C9.19902344 28.50869141 8.96054688 29.51738281 8.71484375 30.55664062 C8.13129784 33.01920438 7.53872249 35.47920359 6.9375 37.9375 C7.62972656 37.62296875 8.32195312 37.3084375 9.03515625 36.984375 C23.81464148 30.51956723 46.57601069 22.40943973 62.75 27.890625 C64.9375 28.9375 64.9375 28.9375 65.9375 29.9375 C66.83193846 35.77690535 66.01375776 40.16408565 62.6484375 45.0078125 C59.52124822 48.53482506 55.79024866 51.25148786 51.9375 53.9375 C52.85789063 54.35 53.77828125 54.7625 54.7265625 55.1875 C68.99277637 61.65900747 81.79181738 69.26128934 94.27416992 78.71875 C95.86721051 79.8859977 97.52098538 80.96896213 99.17578125 82.046875 C101.62529892 83.72377253 103.26516545 85.16381487 105.125 87.4375 C107.63656226 90.43141528 110.21688207 93.32644659 112.89453125 96.17333984 C144.28724452 129.69565522 155.21627785 171.99759265 153.9375 216.9375 C153.68013039 222.02211919 152.9440845 226.94651851 151.9375 231.9375 C151.78152344 232.72253906 151.62554687 233.50757813 151.46484375 234.31640625 C143.88580116 271.53792651 123.75344429 304.15624825 94.80859375 328.74609375 C92.9375 329.9375 92.9375 329.9375 89.9375 329.9375 C89.6075 330.9275 89.2775 331.9175 88.9375 332.9375 C86.80235589 334.62582322 84.70699063 336.13755202 82.4375 337.625 C81.76605957 338.06561768 81.09461914 338.50623535 80.40283203 338.96020508 C59.46994652 352.35212617 35.37548141 359.50965765 10.8125 362.125 C10.02544678 362.20919189 9.23839355 362.29338379 8.42749023 362.38012695 C-2.75119085 363.44175085 -13.74063984 363.01979507 -24.875 361.6875 C-26.0086499 361.55255127 -27.1422998 361.41760254 -28.31030273 361.27856445 C-37.15801586 360.16510893 -45.53984981 358.5812243 -54.0625 355.9375 C-54.74038574 355.72754395 -55.41827148 355.51758789 -56.11669922 355.30126953 C-85.74504807 345.94602157 -119.55397105 326.31608147 -136.0625 298.9375 C-136.0625 297.9475 -136.0625 296.9575 -136.0625 295.9375 C-136.7225 295.9375 -137.3825 295.9375 -138.0625 295.9375 C-140.64368424 292.43826569 -142.79755464 288.64724208 -145.0625 284.9375 C-145.56136719 284.18210937 -146.06023437 283.42671875 -146.57421875 282.6484375 C-168.17091279 249.15876949 -170.8143009 205.1781478 -162.8125 167.125 C-153.3962929 125.05451958 -126.40253221 90.17190049 -90.37890625 67.13330078 C-82.00952214 61.93039579 -73.13164815 57.76695067 -64.0625 53.9375 C-64.8875 53.31875 -65.7125 52.7 -66.5625 52.0625 C-67.3875 51.36125 -68.2125 50.66 -69.0625 49.9375 C-69.0625 49.2775 -69.0625 48.6175 -69.0625 47.9375 C-70.0525 47.9375 -71.0425 47.9375 -72.0625 47.9375 C-75.53337416 43.81636475 -78.4246225 38.96024121 -78.75 33.5 C-78.0625 29.9375 -78.0625 29.9375 -75.8828125 28.234375 C-62.98252881 22.3023886 -43.43273624 28.78161541 -30.80053711 33.37329102 C-26.86562375 34.8391773 -22.9514994 36.35338619 -19.0625 37.9375 C-19.07297363 37.32865967 -19.08344727 36.71981934 -19.09423828 36.0925293 C-19.50641105 8.51608404 -19.50641105 8.51608404 -15.3125 2.375 C-10.0502979 -0.98696245 -6.04589271 -1.3091759 0 0 Z M-47.8125 79.9375 C-49.06123901 80.31092529 -49.06123901 80.31092529 -50.33520508 80.69189453 C-54.81244542 82.08331531 -58.92275687 83.6940263 -63.0625 85.9375 C-61.95403671 88.98577404 -60.77597276 91.35886359 -58.9375 94.0625 C-56.21962937 98.66665398 -56.3515825 103.74614896 -57.0625 108.9375 C-59.0625 111.9375 -59.0625 111.9375 -62.0625 112.9375 C-70.35898895 113.23919051 -70.35898895 113.23919051 -73.0625 111.9375 C-73.74376034 110.27674518 -74.40758666 108.60882006 -75.0625 106.9375 C-76.07110007 105.14762681 -77.11335511 103.37632319 -78.1875 101.625 C-78.72632813 100.74199219 -79.26515625 99.85898438 -79.8203125 98.94921875 C-80.23023438 98.28535156 -80.64015625 97.62148437 -81.0625 96.9375 C-85.93064844 99.54435408 -89.8192929 102.25646023 -93.875 106.0625 C-94.63985718 106.77937988 -94.63985718 106.77937988 -95.42016602 107.51074219 C-96.97644879 108.97735562 -98.52090716 110.45546645 -100.0625 111.9375 C-100.99320313 112.82695313 -101.92390625 113.71640625 -102.8828125 114.6328125 C-107.47060046 119.11104135 -111.7060159 123.45524264 -115.0625 128.9375 C-115.0625 129.9275 -115.0625 130.9175 -115.0625 131.9375 C-114.28003906 132.34742188 -113.49757813 132.75734375 -112.69140625 133.1796875 C-111.67949219 133.71851563 -110.66757813 134.25734375 -109.625 134.8125 C-108.61566406 135.34617188 -107.60632813 135.87984375 -106.56640625 136.4296875 C-104.0625 137.9375 -104.0625 137.9375 -103.0625 139.9375 C-102.91570066 141.76684565 -102.84147365 143.60250243 -102.8125 145.4375 C-102.78671875 146.4171875 -102.7609375 147.396875 -102.734375 148.40625 C-102.84265625 149.2415625 -102.9509375 150.076875 -103.0625 150.9375 C-104.0525 151.5975 -105.0425 152.2575 -106.0625 152.9375 C-106.0625 153.5975 -106.0625 154.2575 -106.0625 154.9375 C-112.67179518 155.56101841 -116.83457137 153.99328594 -122.7421875 151.03125 C-124.93648444 149.79537212 -124.93648444 149.79537212 -127.0625 149.9375 C-132.70461634 165.09041402 -137.80656486 179.52588378 -137.0625 195.9375 C-136.47235107 195.95731934 -135.88220215 195.97713867 -135.27416992 195.99755859 C-132.59899904 196.09284659 -129.92460502 196.20250939 -127.25 196.3125 C-126.32123047 196.3434375 -125.39246094 196.374375 -124.43554688 196.40625 C-123.54287109 196.44492188 -122.65019531 196.48359375 -121.73046875 196.5234375 C-120.49719849 196.57056885 -120.49719849 196.57056885 -119.23901367 196.61865234 C-117.0625 196.9375 -117.0625 196.9375 -114.0625 198.9375 C-112.46133832 203.74098505 -112.4507954 209.1023862 -114.0625 213.9375 C-119.0225338 214.88038183 -123.90764574 215.23998211 -128.9375 215.5 C-129.72125 215.54318359 -130.505 215.58636719 -131.3125 215.63085938 C-133.22900649 215.73603351 -135.14573333 215.83717925 -137.0625 215.9375 C-138.23977726 232.12506227 -131.40144942 249.76047901 -124.0625 263.9375 C-123.36125 263.504375 -122.66 263.07125 -121.9375 262.625 C-111.78064672 256.66336873 -111.78064672 256.66336873 -105.0625 257.9375 C-102.05410682 259.9857677 -100.42900462 261.45780597 -99.5390625 265.05078125 C-99.28251108 267.0026522 -99.16247216 268.97138088 -99.0625 270.9375 C-99.7225 270.9375 -100.3825 270.9375 -101.0625 270.9375 C-101.28679687 271.53046875 -101.51109375 272.1234375 -101.7421875 272.734375 C-103.44905104 275.58251417 -105.31217212 276.56552017 -108.1875 278.1875 C-109.09757812 278.70828125 -110.00765625 279.2290625 -110.9453125 279.765625 C-111.64398438 280.15234375 -112.34265625 280.5390625 -113.0625 280.9375 C-111.01229985 285.57742665 -108.75726293 288.4890546 -105.0625 291.9375 C-103.81218102 293.2288579 -102.56221026 294.52055301 -101.3125 295.8125 C-97.73723713 299.40819295 -93.92496842 302.48490751 -89.84765625 305.4921875 C-88.0625 306.9375 -88.0625 306.9375 -87.0625 308.9375 C-85.18236894 310.05974855 -85.18236894 310.05974855 -83 311.0625 C-82.26652344 311.41570312 -81.53304687 311.76890625 -80.77734375 312.1328125 C-80.21144531 312.39835938 -79.64554688 312.66390625 -79.0625 312.9375 C-78.58039063 312.08285156 -78.09828125 311.22820312 -77.6015625 310.34765625 C-76.96992187 309.24292969 -76.33828125 308.13820313 -75.6875 307 C-75.06101563 305.89785156 -74.43453125 304.79570312 -73.7890625 303.66015625 C-72.0625 300.9375 -72.0625 300.9375 -70.0625 299.9375 C-65.6790363 299.41217331 -62.08150449 299.50078379 -58 301.25 C-54.90719226 305.54002364 -55.2476584 309.8321208 -56.0625 314.9375 C-57.15041626 317.57091102 -58.44518707 319.56207163 -60.0625 321.9375 C-60.0625 322.5975 -60.0625 323.2575 -60.0625 323.9375 C-26.23129764 337.4339903 8.44590258 340.00757525 42.73535156 325.90478516 C55.88246144 320.12996815 68.85216404 313.28823954 78.9375 302.9375 C80.25702454 301.91934835 81.59166482 300.92061009 82.9375 299.9375 C87.3032836 296.72060682 90.90720602 293.48294097 93.9375 288.9375 C95.9375 285.9375 95.9375 285.9375 98.4375 283.5 C101.26449693 280.60232815 102.99546904 277.44232997 104.9375 273.9375 C105.57429687 272.84050781 106.21109375 271.74351562 106.8671875 270.61328125 C108.58636656 267.64096565 110.28003034 264.65670435 111.95898438 261.66162109 C112.80919724 260.16356639 113.69097083 258.68350925 114.578125 257.20703125 C129.94718914 229.82583014 128.41698249 195.06274505 120.37255859 165.88867188 C118.61839478 159.74661389 116.3657745 154.3247885 112.9375 148.9375 C112.34324219 149.2984375 111.74898437 149.659375 111.13671875 150.03125 C104.85899518 153.54599414 99.16218776 155.38003333 91.9375 153.9375 C89.74677387 152.38169671 89.06690959 151.40910677 88.35546875 148.81640625 C88.27941406 148.05199219 88.20335937 147.28757812 88.125 146.5 C88.03605469 145.73816406 87.94710937 144.97632813 87.85546875 144.19140625 C87.95519378 141.45134228 88.36152485 140.19082836 89.9375 137.9375 C92.5390625 136.015625 92.5390625 136.015625 95.5625 134.1875 C96.56539062 133.57390625 97.56828125 132.9603125 98.6015625 132.328125 C99.37242187 131.86921875 100.14328125 131.4103125 100.9375 130.9375 C100.50923967 126.02617404 98.02769642 123.17767318 94.875 119.625 C94.37693848 119.05249512 93.87887695 118.47999023 93.36572266 117.89013672 C83.67280003 106.7470148 83.67280003 106.7470148 71.9375 97.9375 C68.3513846 99.1328718 67.97481268 100.34827799 66.33203125 103.59765625 C66.03683594 104.20480469 65.74164063 104.81195313 65.4375 105.4375 C64.34657965 107.68127067 63.21178723 109.78279613 61.9375 111.9375 C58.22735899 113.17421367 54.79311242 113.50118603 50.9375 112.9375 C48.1274654 111.14386089 46.42809532 109.91869065 44.9375 106.9375 C45.02494368 105.05887125 45.17925542 103.18294819 45.375 101.3125 C45.47683594 100.30960938 45.57867187 99.30671875 45.68359375 98.2734375 C45.76738281 97.50257812 45.85117188 96.73171875 45.9375 95.9375 C46.5975 95.9375 47.2575 95.9375 47.9375 95.9375 C48.9275 92.9675 49.9175 89.9975 50.9375 86.9375 C42.36654976 82.78370149 33.88114847 79.37829484 24.625 77.0625 C23.82674805 76.85987549 23.02849609 76.65725098 22.20605469 76.44848633 C16.15416042 75.01119246 10.13686862 74.36979258 3.9375 73.9375 C3.89262451 74.61852783 3.84774902 75.29955566 3.80151367 76.0012207 C3.59025983 79.08531635 3.3578863 82.16746562 3.125 85.25 C3.01961914 86.8577832 3.01961914 86.8577832 2.91210938 88.49804688 C2.83154297 89.52607422 2.75097656 90.55410156 2.66796875 91.61328125 C2.59989014 92.56114502 2.53181152 93.50900879 2.46166992 94.4855957 C1.86451222 97.2789142 1.21294182 98.2539759 -1.0625 99.9375 C-5.78189726 100.73727572 -10.44743903 100.82193815 -14.6875 98.5 C-16.69734858 94.75437311 -16.83607713 91.09653052 -17.0625 86.9375 C-17.24767366 84.58314921 -17.43524514 82.22898599 -17.625 79.875 C-17.77235226 77.89594584 -17.91871657 75.91681664 -18.0625 73.9375 C-27.91772139 73.9375 -38.46779384 77.12809406 -47.8125 79.9375 Z " fill="#1E4DD8" transform="translate(169.0625,2.0625)"/>
<path d="M0 0 C3.07759103 1.5506781 3.48071683 1.75465048 4.625 5.1875 C5.285 5.1875 5.945 5.1875 6.625 5.1875 C9.26435346 9.7694176 9.26087195 14.01794361 8.625 19.1875 C7.1875 22.1875 7.1875 22.1875 4.625 25.1875 C3.53638672 26.46753906 3.53638672 26.46753906 2.42578125 27.7734375 C-2.03181965 32.89860182 -2.03181965 32.89860182 -4.375 35.1875 C-5.035 35.1875 -5.695 35.1875 -6.375 35.1875 C-6.375 35.8475 -6.375 36.5075 -6.375 37.1875 C-7.99887351 38.91795427 -9.66128077 40.54831348 -11.375 42.1875 C-12.75367207 43.55580238 -14.12954542 44.92692745 -15.50341797 46.30004883 C-16.67020584 47.46199516 -16.67020584 47.46199516 -17.86056519 48.64741516 C-21.39470268 52.16814964 -24.92618345 55.69154382 -28.45751953 59.21508789 C-30.31469264 61.06722757 -32.17276164 62.91846935 -34.03173828 64.76879883 C-36.72928693 67.45414895 -39.42353208 70.14277656 -42.1171875 72.83203125 C-42.9403244 73.65000687 -43.7634613 74.46798248 -44.61154175 75.31074524 C-48.89486074 79.59365166 -53.02283281 83.94896434 -56.96665955 88.54743958 C-58.60193477 90.45177327 -60.29837989 92.27702251 -62.0625 94.0625 C-62.60261719 94.61679688 -63.14273438 95.17109375 -63.69921875 95.7421875 C-67.55679364 99.06923344 -70.69492078 99.4823249 -75.75 99.5 C-76.85085937 99.51675781 -77.95171875 99.53351563 -79.0859375 99.55078125 C-85.75225108 98.81447821 -90.02709883 95.08387961 -94.75 90.6875 C-95.29527344 90.20152344 -95.84054688 89.71554688 -96.40234375 89.21484375 C-97.79019964 87.9382946 -99.09030529 86.56781924 -100.375 85.1875 C-100.375 84.1975 -100.375 83.2075 -100.375 82.1875 C-101.48875 81.81625 -101.48875 81.81625 -102.625 81.4375 C-105.60523087 80.08284961 -107.27419252 78.6773459 -109.375 76.1875 C-109.375 75.5275 -109.375 74.8675 -109.375 74.1875 C-110.035 74.1875 -110.695 74.1875 -111.375 74.1875 C-111.375 73.1975 -111.375 72.2075 -111.375 71.1875 C-111.93832031 70.9503125 -112.50164062 70.713125 -113.08203125 70.46875 C-115.88772916 68.90100057 -117.81255408 66.97835403 -120.0625 64.6875 C-120.85011719 63.8934375 -121.63773437 63.099375 -122.44921875 62.28125 C-125.82922539 58.60643547 -125.71224318 55.69969249 -125.65625 50.86328125 C-125.10879115 45.65481856 -123.09553524 41.71140264 -119.1875 38.25 C-113.01669642 35.91880753 -108.33505697 35.47924415 -102.20172119 38.19714355 C-99.2295742 39.80849232 -96.97428707 42.09527778 -94.66015625 44.51171875 C-94.15955185 45.01798294 -93.65894745 45.52424713 -93.14317322 46.04585266 C-91.56487253 47.64633355 -90.00115063 49.26021657 -88.4375 50.875 C-87.36226612 51.97032262 -86.28610222 53.0647331 -85.20898438 54.15820312 C-82.58682806 56.82418191 -79.9775489 59.50236075 -77.375 62.1875 C-76.26546905 61.24911708 -75.15775102 60.30859037 -74.05078125 59.3671875 C-73.12519409 58.58190674 -73.12519409 58.58190674 -72.1809082 57.78076172 C-70.55990124 56.35062904 -69.05647475 54.87285511 -67.5625 53.3125 C-65.375 51.1875 -65.375 51.1875 -63.375 51.1875 C-62.715 49.8675 -62.055 48.5475 -61.375 47.1875 C-60.715 47.1875 -60.055 47.1875 -59.375 47.1875 C-59.375 46.1975 -59.375 45.2075 -59.375 44.1875 C-58.385 43.8575 -57.395 43.5275 -56.375 43.1875 C-55.35730028 41.53158181 -54.36026197 39.86292133 -53.375 38.1875 C-51.79724701 36.47603913 -50.16863015 34.81048373 -48.5 33.1875 C-47.65695313 32.3625 -46.81390625 31.5375 -45.9453125 30.6875 C-45.09710938 29.8625 -44.24890625 29.0375 -43.375 28.1875 C-40.78152937 25.60930754 -38.21399745 23.01900896 -35.6875 20.375 C-33.375 18.1875 -33.375 18.1875 -31.375 18.1875 C-31.01148438 17.35025391 -31.01148438 17.35025391 -30.640625 16.49609375 C-24.62749778 5.52770429 -12.99866641 -6.11427397 0 0 Z " fill="#204FD8" transform="translate(208.375,142.8125)"/>
<path d="M0 0 C8.42386551 -0.21437981 8.42386551 -0.21437981 12.234375 2.12109375 C12.564375 3.11109375 12.894375 4.10109375 13.234375 5.12109375 C13.894375 5.12109375 14.554375 5.12109375 15.234375 5.12109375 C15.46667752 14.10935748 15.64405152 23.09657953 15.75249672 32.08719635 C15.80456289 36.26266424 15.87509866 40.43607042 15.98876953 44.61035156 C16.09790377 48.64354995 16.15731065 52.67477384 16.18314743 56.70933533 C16.20154281 58.24371934 16.23747057 59.77800209 16.29167557 61.3115387 C16.6971829 73.26581723 16.6971829 73.26581723 13.04705811 77.89526367 C6.75688177 83.12109375 6.75688177 83.12109375 2.234375 83.12109375 C2.234375 83.78109375 2.234375 84.44109375 2.234375 85.12109375 C0.03477531 86.47098506 -2.173463 87.80061095 -4.390625 89.12109375 C-5.31681641 89.6934375 -5.31681641 89.6934375 -6.26171875 90.27734375 C-6.87402344 90.63828125 -7.48632812 90.99921875 -8.1171875 91.37109375 C-8.94984131 91.87382812 -8.94984131 91.87382812 -9.79931641 92.38671875 C-12.47963046 93.38775981 -14.92659905 93.1663847 -17.765625 93.12109375 C-17.85825671 81.71647145 -17.9293554 70.31193847 -17.97287369 58.90701675 C-17.99375908 53.61137872 -18.02209432 48.31599784 -18.06738281 43.02050781 C-18.11080628 37.9111859 -18.13475493 32.80211151 -18.14513397 27.69261932 C-18.15253161 25.74212496 -18.16697733 23.79164433 -18.18854523 21.84125519 C-18.21753272 19.11164447 -18.22158296 16.38305988 -18.21972656 13.65332031 C-18.23410767 12.84483643 -18.24848877 12.03635254 -18.26330566 11.20336914 C-18.23677702 7.60451107 -18.08419513 5.54491051 -15.89007568 2.62591553 C-13.33139489 0.81351357 -11.75702325 0.53463652 -8.640625 0.37109375 C-7.19429687 0.29181641 -7.19429687 0.29181641 -5.71875 0.2109375 C-3.81208587 0.15293052 -1.9057204 0.08344256 0 0 Z " fill="#1F4DD8" transform="translate(218.765625,221.87890625)"/>
<path d="M0 0 C0.80308594 -0.02449219 1.60617187 -0.04898438 2.43359375 -0.07421875 C6.44210298 -0.09403016 8.60923235 0.0648652 12.11328125 2.171875 C16.37112584 6.8348349 16.46146069 13.18043838 16.3125 19.22265625 C15.45671738 33.61050155 13.67815573 46.93834641 8.125 60.375 C7.465 60.375 6.805 60.375 6.125 60.375 C5.96 61.40625 5.795 62.4375 5.625 63.5 C3.26796981 72.89468769 -3.40665781 84.20472681 -10.875 90.375 C-12.19911851 90.74323779 -13.53241091 91.08115748 -14.875 91.375 C-14.94455903 80.65681018 -14.99784132 69.9386742 -15.03043652 59.22030449 C-15.04608183 54.24314263 -15.06729949 49.26613538 -15.10131836 44.2890625 C-15.13395211 39.48448291 -15.15186155 34.68005191 -15.15963173 29.87537003 C-15.16516801 28.04377021 -15.17597907 26.21217838 -15.19219017 24.38064194 C-15.21401789 21.81201454 -15.2169647 19.24399843 -15.21557617 16.67529297 C-15.226362 15.92075333 -15.23714783 15.16621368 -15.2482605 14.3888092 C-15.22056318 9.64303132 -14.43635748 6.38138279 -11.875 2.375 C-7.83342649 -0.31938234 -4.74396317 0.00754207 0 0 Z " fill="#224FD9" transform="translate(262.875,189.625)"/>
<path d="M0 0 C1.16273438 -0.020625 2.32546875 -0.04125 3.5234375 -0.0625 C5.1940625 -0.07023437 5.1940625 -0.07023437 6.8984375 -0.078125 C7.92372559 -0.0874707 8.94901367 -0.09681641 10.00537109 -0.10644531 C12.625 0.25 12.625 0.25 14.42041016 1.58300781 C16.50835557 4.47244666 16.7528436 7.07329198 16.77026367 10.51855469 C16.77664352 11.37664734 16.78302338 12.23473999 16.78959656 13.11883545 C16.79070938 14.0438385 16.7918222 14.96884155 16.79296875 15.921875 C16.79796135 17.35554413 16.79796135 17.35554413 16.80305481 18.81817627 C16.8081194 20.84232095 16.81046328 22.86647399 16.81030273 24.890625 C16.8124817 27.97410027 16.83062164 31.05721339 16.84960938 34.140625 C16.85254496 36.10937378 16.85452865 38.07812426 16.85546875 40.046875 C16.86265427 40.96378113 16.86983978 41.88068726 16.87724304 42.82537842 C16.85893167 48.00758768 16.47320535 52.38266649 14.625 57.25 C12.03776011 58.54361994 10.14386997 58.37948949 7.25 58.3828125 C6.18265625 58.38410156 5.1153125 58.38539063 4.015625 58.38671875 C2.89671875 58.38285156 1.7778125 58.37898438 0.625 58.375 C-0.49390625 58.37886719 -1.6128125 58.38273437 -2.765625 58.38671875 C-4.36664063 58.38478516 -4.36664063 58.38478516 -6 58.3828125 C-6.98226562 58.38168457 -7.96453125 58.38055664 -8.9765625 58.37939453 C-11.375 58.25 -11.375 58.25 -13.375 57.25 C-15.19948594 54.32747823 -15.62691246 52.08347134 -15.63378906 48.66845703 C-15.64009338 47.76717072 -15.64639771 46.8658844 -15.65289307 45.93728638 C-15.6488446 44.97056 -15.64479614 44.00383362 -15.640625 43.0078125 C-15.64253845 42.00668427 -15.6444519 41.00555603 -15.64642334 39.97409058 C-15.64778348 37.85756173 -15.64409896 35.7410245 -15.63574219 33.62451172 C-15.62506285 30.39401356 -15.63563181 27.16407436 -15.6484375 23.93359375 C-15.64711544 21.87499878 -15.64455207 19.81640415 -15.640625 17.7578125 C-15.64467346 16.79513458 -15.64872192 15.83245667 -15.65289307 14.84060669 C-15.55810809 1.1950527 -12.92983681 0.05695963 0 0 Z " fill="#214FD8" transform="translate(173.375,262.75)"/>
<path d="M0 0 C1.5631897 0.00785522 1.5631897 0.00785522 3.15795898 0.01586914 C4.28266602 0.0190918 5.40737305 0.02231445 6.56616211 0.02563477 C7.75016602 0.03401367 8.93416992 0.04239258 10.15405273 0.05102539 C11.34192383 0.05553711 12.52979492 0.06004883 13.75366211 0.06469727 C16.69967499 0.07652864 19.64558954 0.09301252 22.59155273 0.11352539 C22.59155273 0.44352539 22.59155273 0.77352539 22.59155273 1.11352539 C21.91576172 1.12810791 21.2399707 1.14269043 20.54370117 1.15771484 C17.47574751 1.2322795 14.40887197 1.32891194 11.34155273 1.42602539 C9.74633789 1.45986328 9.74633789 1.45986328 8.11889648 1.49438477 C6.58168945 1.54755859 6.58168945 1.54755859 5.01342773 1.60180664 C4.07080078 1.62799072 3.12817383 1.6541748 2.15698242 1.68115234 C-0.77998867 2.17614433 -2.2001853 3.16198523 -4.40844727 5.11352539 C-3.28878505 0.15502129 -3.28878505 0.15502129 0 0 Z " fill="#344DDD" transform="translate(163.408447265625,262.886474609375)"/>
<path d="M0 0 C0.99 0.33 1.98 0.66 3 1 C2.38125 1.7425 1.7625 2.485 1.125 3.25 C-0.60437281 5.48801188 -1.86106661 7.43739987 -3 10 C-2.25 2.25 -2.25 2.25 0 0 Z " fill="#3852DE" transform="translate(259,139)"/>
</svg>
